<?xml version="1.0" encoding="UTF-8"?>
<svg id="Layer_1" xmlns="http://www.w3.org/2000/svg" version="1.1" viewBox="0 0 108.28 108.28">
  <path class="st0" d="M97.94,87.02v-9.26h-4.28v3.56h-15.66v-23.14l1.06-2.49h-1.77v-5.7h-2.14v-6.06s0-9.97-13.89-12.1v-3.92h-2.71s-.02-8.65-.02-10.58-.55-6.31-3.6-7.95v-5.01h2.77v-1.54h-2.77V.09h-1.54v2.73h-2.77v1.54h2.77v5.01c-1.54.81-2.44,2.31-2.95,3.85-.52,1.54-.66,3.12-.66,4.09,0,1.93-.02,10.58-.02,10.58h-2.75v3.92c-13.89,2.13-13.89,12.1-13.89,12.1v6.06h-2.14v5.7h-1.79l1.08,2.49v23.14h-15.67v-3.56h-4.28v9.26h-2.84l2.78,5.35v15.75l43.86-19.31,43.82,19.39v-15.83l2.84-5.35h-2.86ZM46.94,75.62h-5.94v-14.28c0-.23.05-.77.29-1.35,1.02-2.44,4.35-2.44,5.36,0,.26.58.3,1.12.3,1.35,0,.55-.01,14.28-.01,14.28ZM57.08,75.62h-5.93v-14.28c0-.23.05-.77.29-1.35,1.01-2.44,4.34-2.44,5.36,0,.24.58.29,1.12.29,1.35,0,.55-.01,14.28-.01,14.28ZM67.24,75.62h-5.94v-14.28c0-.23.05-.77.29-1.35,1.02-2.44,4.35-2.44,5.36,0,.26.58.3,1.12.3,1.35,0,.55-.01,14.28-.01,14.28Z" fill="#99e1a8" />
</svg>